<mxfile host="app.diagrams.net" agent="Mozilla/5.0 (Windows NT 10.0; Win64; x64) AppleWebKit/537.36 (KHTML, like Gecko) Chrome/139.0.0.0 Safari/537.36" version="28.1.2" pages="2">
  <diagram name="SQL Safari Use Case Diagram" id="sql-safari-usecase">
    <mxGraphModel dx="1455" dy="845" grid="0" gridSize="10" guides="1" tooltips="1" connect="1" arrows="1" fold="1" page="1" pageScale="1" pageWidth="1100" pageHeight="850" math="0" shadow="0">
      <root>
        <mxCell id="0" />
        <mxCell id="1" parent="0" />
        <mxCell id="systemBoundary" value="" style="shape=rectangle;rounded=0;whiteSpace=wrap;html=1;" parent="1" vertex="1">
          <mxGeometry x="350" y="40" width="600" height="770" as="geometry" />
        </mxCell>
        <mxCell id="U1" value="View Home Page" style="ellipse;whiteSpace=wrap;html=1;" parent="systemBoundary" vertex="1">
          <mxGeometry x="40" y="19.999999999999993" width="160" height="61.599999999999994" as="geometry" />
        </mxCell>
        <mxCell id="U2" value="Start Game" style="ellipse;whiteSpace=wrap;html=1;" parent="systemBoundary" vertex="1">
          <mxGeometry x="110" y="210" width="160" height="61.599999999999994" as="geometry" />
        </mxCell>
        <mxCell id="U3" value="Run SQL Query" style="ellipse;whiteSpace=wrap;html=1;" parent="systemBoundary" vertex="1">
          <mxGeometry x="120" y="440" width="160" height="61.599999999999994" as="geometry" />
        </mxCell>
        <mxCell id="U4" value="Get Feedback" style="ellipse;whiteSpace=wrap;html=1;" parent="systemBoundary" vertex="1">
          <mxGeometry x="400" y="310" width="160" height="61.599999999999994" as="geometry" />
        </mxCell>
        <mxCell id="U6" value="Get Achievements" style="ellipse;whiteSpace=wrap;html=1;" parent="systemBoundary" vertex="1">
          <mxGeometry x="380" y="560" width="160" height="61.599999999999994" as="geometry" />
        </mxCell>
        <mxCell id="U7" value="View Achievements" style="ellipse;whiteSpace=wrap;html=1;" parent="systemBoundary" vertex="1">
          <mxGeometry x="350" y="680" width="160" height="61.599999999999994" as="geometry" />
        </mxCell>
        <mxCell id="U8" value="View Steps Left" style="ellipse;whiteSpace=wrap;html=1;" parent="systemBoundary" vertex="1">
          <mxGeometry x="190" y="330" width="160" height="61.599999999999994" as="geometry" />
        </mxCell>
        <mxCell id="U9" value="Receive Email Certificate" style="ellipse;whiteSpace=wrap;html=1;" parent="systemBoundary" vertex="1">
          <mxGeometry x="370" y="440" width="200" height="61.599999999999994" as="geometry" />
        </mxCell>
        <mxCell id="UEGi9kXOAyZBpSis9nm9-2" value="&lt;&lt;include&gt;&gt;" style="endArrow=open;dashed=1;exitX=0.5;exitY=0;exitDx=0;exitDy=0;entryX=0.543;entryY=0.973;entryDx=0;entryDy=0;entryPerimeter=0;" edge="1" parent="systemBoundary" source="U6" target="U9">
          <mxGeometry relative="1" as="geometry">
            <mxPoint x="271" y="461" as="sourcePoint" />
            <mxPoint x="409" y="415" as="targetPoint" />
          </mxGeometry>
        </mxCell>
        <mxCell id="U5" value="Get Help" style="ellipse;whiteSpace=wrap;html=1;" parent="systemBoundary" vertex="1">
          <mxGeometry x="120" y="100" width="160" height="61.599999999999994" as="geometry" />
        </mxCell>
        <mxCell id="a1" style="shape=wire;dashed=1;endArrow=none;endFill=0;" parent="1" source="UEGi9kXOAyZBpSis9nm9-1" target="U1" edge="1">
          <mxGeometry relative="1" as="geometry">
            <mxPoint x="130" y="298.18181818181824" as="sourcePoint" />
          </mxGeometry>
        </mxCell>
        <mxCell id="a2" style="shape=wire;dashed=1;endArrow=none;endFill=0;" parent="1" source="UEGi9kXOAyZBpSis9nm9-1" target="U2" edge="1">
          <mxGeometry relative="1" as="geometry">
            <mxPoint x="130" y="306.3636363636364" as="sourcePoint" />
          </mxGeometry>
        </mxCell>
        <mxCell id="a3" style="shape=wire;dashed=1;endArrow=none;endFill=0;" parent="1" source="UEGi9kXOAyZBpSis9nm9-1" target="U3" edge="1">
          <mxGeometry relative="1" as="geometry">
            <mxPoint x="130" y="314.5454545454546" as="sourcePoint" />
          </mxGeometry>
        </mxCell>
        <mxCell id="a4" style="shape=wire;dashed=1;endArrow=none;endFill=0;" parent="1" target="U5" edge="1">
          <mxGeometry relative="1" as="geometry">
            <mxPoint x="190" y="420" as="sourcePoint" />
          </mxGeometry>
        </mxCell>
        <mxCell id="a5" style="shape=wire;dashed=1;endArrow=none;endFill=0;" parent="1" source="UEGi9kXOAyZBpSis9nm9-1" target="U7" edge="1">
          <mxGeometry relative="1" as="geometry">
            <mxPoint x="130" y="325" as="sourcePoint" />
          </mxGeometry>
        </mxCell>
        <mxCell id="a6" style="shape=wire;dashed=1;endArrow=none;endFill=0;" parent="1" target="U8" edge="1">
          <mxGeometry relative="1" as="geometry">
            <mxPoint x="190" y="440" as="sourcePoint" />
          </mxGeometry>
        </mxCell>
        <mxCell id="r1" value="&lt;&lt;include&gt;&gt;" style="endArrow=open;dashed=1;" parent="1" source="U3" target="U4" edge="1">
          <mxGeometry relative="1" as="geometry" />
        </mxCell>
        <mxCell id="r2" value="&lt;&lt;include&gt;&gt;" style="endArrow=open;dashed=1;" parent="1" source="U3" target="U6" edge="1">
          <mxGeometry relative="1" as="geometry" />
        </mxCell>
        <mxCell id="r3" value="&lt;&lt;extend&gt;&gt;" style="endArrow=open;dashed=1;" parent="1" source="U6" target="U7" edge="1">
          <mxGeometry relative="1" as="geometry" />
        </mxCell>
        <mxCell id="r4" value="&lt;&lt;include&gt;&gt;" style="endArrow=open;dashed=1;" parent="1" source="U2" target="U8" edge="1">
          <mxGeometry relative="1" as="geometry" />
        </mxCell>
        <mxCell id="UEGi9kXOAyZBpSis9nm9-1" value="Player" style="shape=umlActor;verticalLabelPosition=bottom;verticalAlign=top;html=1;outlineConnect=0;" vertex="1" parent="1">
          <mxGeometry x="110" y="400" width="70" height="100" as="geometry" />
        </mxCell>
      </root>
    </mxGraphModel>
  </diagram>
  <diagram id="l5hI6cqvURbulEKnGcld" name="Game-Flow">
    <mxGraphModel dx="1164" dy="676" grid="0" gridSize="10" guides="1" tooltips="1" connect="1" arrows="1" fold="1" page="1" pageScale="1" pageWidth="827" pageHeight="1169" math="0" shadow="0">
      <root>
        <mxCell id="0" />
        <mxCell id="1" parent="0" />
        <mxCell id="Ro2BVxWjuxGupuSytC11-1" value="Start Level 1" style="ellipse;whiteSpace=wrap;html=1;" vertex="1" parent="1">
          <mxGeometry x="38" y="86" width="84" height="56" as="geometry" />
        </mxCell>
        <mxCell id="Ro2BVxWjuxGupuSytC11-7" style="edgeStyle=orthogonalEdgeStyle;rounded=0;orthogonalLoop=1;jettySize=auto;html=1;exitX=1;exitY=0.5;exitDx=0;exitDy=0;" edge="1" parent="1" source="Ro2BVxWjuxGupuSytC11-3">
          <mxGeometry relative="1" as="geometry">
            <mxPoint x="381.95745849609375" y="107" as="targetPoint" />
          </mxGeometry>
        </mxCell>
        <mxCell id="Ro2BVxWjuxGupuSytC11-3" value="Attempt to answer 3 times" style="rounded=0;whiteSpace=wrap;html=1;" vertex="1" parent="1">
          <mxGeometry x="165" y="77" width="120" height="60" as="geometry" />
        </mxCell>
        <mxCell id="Ro2BVxWjuxGupuSytC11-4" style="edgeStyle=orthogonalEdgeStyle;rounded=0;orthogonalLoop=1;jettySize=auto;html=1;exitX=1;exitY=0.5;exitDx=0;exitDy=0;entryX=0.029;entryY=0.617;entryDx=0;entryDy=0;entryPerimeter=0;" edge="1" parent="1" source="Ro2BVxWjuxGupuSytC11-1" target="Ro2BVxWjuxGupuSytC11-3">
          <mxGeometry relative="1" as="geometry" />
        </mxCell>
        <mxCell id="Ro2BVxWjuxGupuSytC11-46" style="edgeStyle=orthogonalEdgeStyle;rounded=0;orthogonalLoop=1;jettySize=auto;html=1;exitX=1;exitY=0.5;exitDx=0;exitDy=0;entryX=0;entryY=0.5;entryDx=0;entryDy=0;" edge="1" parent="1" source="Ro2BVxWjuxGupuSytC11-5" target="Ro2BVxWjuxGupuSytC11-18">
          <mxGeometry relative="1" as="geometry">
            <Array as="points">
              <mxPoint x="678" y="114" />
              <mxPoint x="678" y="401" />
              <mxPoint x="14" y="401" />
              <mxPoint x="14" y="490" />
            </Array>
          </mxGeometry>
        </mxCell>
        <mxCell id="Ro2BVxWjuxGupuSytC11-5" value="Achievement&amp;nbsp; Level 1" style="rounded=0;whiteSpace=wrap;html=1;" vertex="1" parent="1">
          <mxGeometry x="521" y="84" width="137" height="60" as="geometry" />
        </mxCell>
        <mxCell id="Ro2BVxWjuxGupuSytC11-10" value="No" style="edgeStyle=orthogonalEdgeStyle;rounded=0;orthogonalLoop=1;jettySize=auto;html=1;exitX=0.5;exitY=1;exitDx=0;exitDy=0;entryX=0.5;entryY=0;entryDx=0;entryDy=0;" edge="1" parent="1" source="Ro2BVxWjuxGupuSytC11-6" target="Ro2BVxWjuxGupuSytC11-9">
          <mxGeometry relative="1" as="geometry" />
        </mxCell>
        <mxCell id="Ro2BVxWjuxGupuSytC11-6" value="Answer Correct?" style="rhombus;whiteSpace=wrap;html=1;" vertex="1" parent="1">
          <mxGeometry x="385" y="67" width="80" height="80" as="geometry" />
        </mxCell>
        <mxCell id="Ro2BVxWjuxGupuSytC11-8" value="Yes" style="edgeStyle=orthogonalEdgeStyle;rounded=0;orthogonalLoop=1;jettySize=auto;html=1;exitX=1;exitY=0.5;exitDx=0;exitDy=0;entryX=0.015;entryY=0.378;entryDx=0;entryDy=0;entryPerimeter=0;" edge="1" parent="1" source="Ro2BVxWjuxGupuSytC11-6" target="Ro2BVxWjuxGupuSytC11-5">
          <mxGeometry relative="1" as="geometry" />
        </mxCell>
        <mxCell id="Ro2BVxWjuxGupuSytC11-13" style="edgeStyle=orthogonalEdgeStyle;rounded=0;orthogonalLoop=1;jettySize=auto;html=1;exitX=0.5;exitY=1;exitDx=0;exitDy=0;entryX=0.5;entryY=0;entryDx=0;entryDy=0;" edge="1" parent="1" source="Ro2BVxWjuxGupuSytC11-9" target="Ro2BVxWjuxGupuSytC11-12">
          <mxGeometry relative="1" as="geometry" />
        </mxCell>
        <mxCell id="Ro2BVxWjuxGupuSytC11-9" value="Help Section" style="rounded=0;whiteSpace=wrap;html=1;" vertex="1" parent="1">
          <mxGeometry x="365" y="189" width="120" height="60" as="geometry" />
        </mxCell>
        <mxCell id="Ro2BVxWjuxGupuSytC11-15" style="edgeStyle=orthogonalEdgeStyle;rounded=0;orthogonalLoop=1;jettySize=auto;html=1;exitX=0.5;exitY=1;exitDx=0;exitDy=0;entryX=0;entryY=0.5;entryDx=0;entryDy=0;endArrow=none;endFill=0;" edge="1" parent="1" source="Ro2BVxWjuxGupuSytC11-12" target="Ro2BVxWjuxGupuSytC11-6">
          <mxGeometry relative="1" as="geometry">
            <Array as="points">
              <mxPoint x="425" y="374" />
              <mxPoint x="317" y="374" />
              <mxPoint x="317" y="107" />
            </Array>
          </mxGeometry>
        </mxCell>
        <mxCell id="Ro2BVxWjuxGupuSytC11-12" value="Attempt to answer" style="rounded=0;whiteSpace=wrap;html=1;" vertex="1" parent="1">
          <mxGeometry x="365" y="294" width="120" height="60" as="geometry" />
        </mxCell>
        <mxCell id="Ro2BVxWjuxGupuSytC11-18" value="Start Level 2" style="ellipse;whiteSpace=wrap;html=1;" vertex="1" parent="1">
          <mxGeometry x="34" y="462" width="84" height="56" as="geometry" />
        </mxCell>
        <mxCell id="Ro2BVxWjuxGupuSytC11-19" style="edgeStyle=orthogonalEdgeStyle;rounded=0;orthogonalLoop=1;jettySize=auto;html=1;exitX=1;exitY=0.5;exitDx=0;exitDy=0;" edge="1" source="Ro2BVxWjuxGupuSytC11-20" parent="1">
          <mxGeometry relative="1" as="geometry">
            <mxPoint x="377.95745849609375" y="483" as="targetPoint" />
          </mxGeometry>
        </mxCell>
        <mxCell id="Ro2BVxWjuxGupuSytC11-20" value="Attempt to answer 3 times" style="rounded=0;whiteSpace=wrap;html=1;" vertex="1" parent="1">
          <mxGeometry x="161" y="453" width="120" height="60" as="geometry" />
        </mxCell>
        <mxCell id="Ro2BVxWjuxGupuSytC11-21" style="edgeStyle=orthogonalEdgeStyle;rounded=0;orthogonalLoop=1;jettySize=auto;html=1;exitX=1;exitY=0.5;exitDx=0;exitDy=0;entryX=0.029;entryY=0.617;entryDx=0;entryDy=0;entryPerimeter=0;" edge="1" source="Ro2BVxWjuxGupuSytC11-18" target="Ro2BVxWjuxGupuSytC11-20" parent="1">
          <mxGeometry relative="1" as="geometry" />
        </mxCell>
        <mxCell id="Ro2BVxWjuxGupuSytC11-23" value="Achievement&amp;nbsp; Level 2" style="rounded=0;whiteSpace=wrap;html=1;" vertex="1" parent="1">
          <mxGeometry x="517" y="460" width="132" height="60" as="geometry" />
        </mxCell>
        <mxCell id="Ro2BVxWjuxGupuSytC11-24" value="No" style="edgeStyle=orthogonalEdgeStyle;rounded=0;orthogonalLoop=1;jettySize=auto;html=1;exitX=0.5;exitY=1;exitDx=0;exitDy=0;entryX=0.5;entryY=0;entryDx=0;entryDy=0;" edge="1" source="Ro2BVxWjuxGupuSytC11-25" target="Ro2BVxWjuxGupuSytC11-28" parent="1">
          <mxGeometry relative="1" as="geometry" />
        </mxCell>
        <mxCell id="Ro2BVxWjuxGupuSytC11-25" value="Answer Correct?" style="rhombus;whiteSpace=wrap;html=1;" vertex="1" parent="1">
          <mxGeometry x="381" y="443" width="80" height="80" as="geometry" />
        </mxCell>
        <mxCell id="Ro2BVxWjuxGupuSytC11-26" value="Yes" style="edgeStyle=orthogonalEdgeStyle;rounded=0;orthogonalLoop=1;jettySize=auto;html=1;exitX=1;exitY=0.5;exitDx=0;exitDy=0;entryX=0.015;entryY=0.378;entryDx=0;entryDy=0;entryPerimeter=0;" edge="1" source="Ro2BVxWjuxGupuSytC11-25" target="Ro2BVxWjuxGupuSytC11-23" parent="1">
          <mxGeometry relative="1" as="geometry" />
        </mxCell>
        <mxCell id="Ro2BVxWjuxGupuSytC11-27" style="edgeStyle=orthogonalEdgeStyle;rounded=0;orthogonalLoop=1;jettySize=auto;html=1;exitX=0.5;exitY=1;exitDx=0;exitDy=0;entryX=0.5;entryY=0;entryDx=0;entryDy=0;" edge="1" source="Ro2BVxWjuxGupuSytC11-28" target="Ro2BVxWjuxGupuSytC11-30" parent="1">
          <mxGeometry relative="1" as="geometry" />
        </mxCell>
        <mxCell id="Ro2BVxWjuxGupuSytC11-28" value="Help Section" style="rounded=0;whiteSpace=wrap;html=1;" vertex="1" parent="1">
          <mxGeometry x="361" y="565" width="120" height="60" as="geometry" />
        </mxCell>
        <mxCell id="Ro2BVxWjuxGupuSytC11-29" style="edgeStyle=orthogonalEdgeStyle;rounded=0;orthogonalLoop=1;jettySize=auto;html=1;exitX=0.5;exitY=1;exitDx=0;exitDy=0;entryX=0;entryY=0.5;entryDx=0;entryDy=0;endArrow=none;endFill=0;" edge="1" source="Ro2BVxWjuxGupuSytC11-30" target="Ro2BVxWjuxGupuSytC11-25" parent="1">
          <mxGeometry relative="1" as="geometry">
            <Array as="points">
              <mxPoint x="421" y="750" />
              <mxPoint x="313" y="750" />
              <mxPoint x="313" y="483" />
            </Array>
          </mxGeometry>
        </mxCell>
        <mxCell id="Ro2BVxWjuxGupuSytC11-30" value="Attempt to answer" style="rounded=0;whiteSpace=wrap;html=1;" vertex="1" parent="1">
          <mxGeometry x="361" y="670" width="120" height="60" as="geometry" />
        </mxCell>
        <mxCell id="Ro2BVxWjuxGupuSytC11-32" value="Start Level 3" style="ellipse;whiteSpace=wrap;html=1;" vertex="1" parent="1">
          <mxGeometry x="42" y="812" width="84" height="56" as="geometry" />
        </mxCell>
        <mxCell id="Ro2BVxWjuxGupuSytC11-33" style="edgeStyle=orthogonalEdgeStyle;rounded=0;orthogonalLoop=1;jettySize=auto;html=1;exitX=1;exitY=0.5;exitDx=0;exitDy=0;" edge="1" source="Ro2BVxWjuxGupuSytC11-34" parent="1">
          <mxGeometry relative="1" as="geometry">
            <mxPoint x="385.95745849609375" y="833" as="targetPoint" />
          </mxGeometry>
        </mxCell>
        <mxCell id="Ro2BVxWjuxGupuSytC11-34" value="Attempt to answer 3 times" style="rounded=0;whiteSpace=wrap;html=1;" vertex="1" parent="1">
          <mxGeometry x="169" y="803" width="120" height="60" as="geometry" />
        </mxCell>
        <mxCell id="Ro2BVxWjuxGupuSytC11-35" style="edgeStyle=orthogonalEdgeStyle;rounded=0;orthogonalLoop=1;jettySize=auto;html=1;exitX=1;exitY=0.5;exitDx=0;exitDy=0;entryX=0.029;entryY=0.617;entryDx=0;entryDy=0;entryPerimeter=0;" edge="1" source="Ro2BVxWjuxGupuSytC11-32" target="Ro2BVxWjuxGupuSytC11-34" parent="1">
          <mxGeometry relative="1" as="geometry" />
        </mxCell>
        <mxCell id="Ro2BVxWjuxGupuSytC11-36" style="edgeStyle=orthogonalEdgeStyle;rounded=0;orthogonalLoop=1;jettySize=auto;html=1;exitX=1;exitY=0.5;exitDx=0;exitDy=0;entryX=0;entryY=0.5;entryDx=0;entryDy=0;" edge="1" source="Ro2BVxWjuxGupuSytC11-37" target="Ro2BVxWjuxGupuSytC11-45" parent="1">
          <mxGeometry relative="1" as="geometry" />
        </mxCell>
        <mxCell id="Ro2BVxWjuxGupuSytC11-37" value="Achievement&amp;nbsp; Level 3" style="rounded=0;whiteSpace=wrap;html=1;" vertex="1" parent="1">
          <mxGeometry x="525" y="810" width="130" height="60" as="geometry" />
        </mxCell>
        <mxCell id="Ro2BVxWjuxGupuSytC11-38" value="No" style="edgeStyle=orthogonalEdgeStyle;rounded=0;orthogonalLoop=1;jettySize=auto;html=1;exitX=0.5;exitY=1;exitDx=0;exitDy=0;entryX=0.5;entryY=0;entryDx=0;entryDy=0;" edge="1" source="Ro2BVxWjuxGupuSytC11-39" target="Ro2BVxWjuxGupuSytC11-42" parent="1">
          <mxGeometry relative="1" as="geometry" />
        </mxCell>
        <mxCell id="Ro2BVxWjuxGupuSytC11-39" value="Answer Correct?" style="rhombus;whiteSpace=wrap;html=1;" vertex="1" parent="1">
          <mxGeometry x="389" y="793" width="80" height="80" as="geometry" />
        </mxCell>
        <mxCell id="Ro2BVxWjuxGupuSytC11-40" value="Yes" style="edgeStyle=orthogonalEdgeStyle;rounded=0;orthogonalLoop=1;jettySize=auto;html=1;exitX=1;exitY=0.5;exitDx=0;exitDy=0;entryX=0.015;entryY=0.378;entryDx=0;entryDy=0;entryPerimeter=0;" edge="1" source="Ro2BVxWjuxGupuSytC11-39" target="Ro2BVxWjuxGupuSytC11-37" parent="1">
          <mxGeometry relative="1" as="geometry" />
        </mxCell>
        <mxCell id="Ro2BVxWjuxGupuSytC11-41" style="edgeStyle=orthogonalEdgeStyle;rounded=0;orthogonalLoop=1;jettySize=auto;html=1;exitX=0.5;exitY=1;exitDx=0;exitDy=0;entryX=0.5;entryY=0;entryDx=0;entryDy=0;" edge="1" source="Ro2BVxWjuxGupuSytC11-42" target="Ro2BVxWjuxGupuSytC11-44" parent="1">
          <mxGeometry relative="1" as="geometry" />
        </mxCell>
        <mxCell id="Ro2BVxWjuxGupuSytC11-42" value="Help Section" style="rounded=0;whiteSpace=wrap;html=1;" vertex="1" parent="1">
          <mxGeometry x="369" y="915" width="120" height="60" as="geometry" />
        </mxCell>
        <mxCell id="Ro2BVxWjuxGupuSytC11-43" style="edgeStyle=orthogonalEdgeStyle;rounded=0;orthogonalLoop=1;jettySize=auto;html=1;exitX=0.5;exitY=1;exitDx=0;exitDy=0;entryX=0;entryY=0.5;entryDx=0;entryDy=0;endArrow=none;endFill=0;" edge="1" source="Ro2BVxWjuxGupuSytC11-44" target="Ro2BVxWjuxGupuSytC11-39" parent="1">
          <mxGeometry relative="1" as="geometry">
            <Array as="points">
              <mxPoint x="429" y="1100" />
              <mxPoint x="321" y="1100" />
              <mxPoint x="321" y="833" />
            </Array>
          </mxGeometry>
        </mxCell>
        <mxCell id="Ro2BVxWjuxGupuSytC11-44" value="Attempt to answer" style="rounded=0;whiteSpace=wrap;html=1;" vertex="1" parent="1">
          <mxGeometry x="369" y="1020" width="120" height="60" as="geometry" />
        </mxCell>
        <mxCell id="Ro2BVxWjuxGupuSytC11-45" value="Game End" style="ellipse;whiteSpace=wrap;html=1;" vertex="1" parent="1">
          <mxGeometry x="716" y="812" width="84" height="56" as="geometry" />
        </mxCell>
        <mxCell id="Ro2BVxWjuxGupuSytC11-47" style="edgeStyle=orthogonalEdgeStyle;rounded=0;orthogonalLoop=1;jettySize=auto;html=1;entryX=-0.004;entryY=0.658;entryDx=0;entryDy=0;entryPerimeter=0;" edge="1" parent="1" source="Ro2BVxWjuxGupuSytC11-23" target="Ro2BVxWjuxGupuSytC11-32">
          <mxGeometry relative="1" as="geometry">
            <mxPoint x="792" y="490" as="sourcePoint" />
            <Array as="points">
              <mxPoint x="688" y="490" />
              <mxPoint x="688" y="772" />
              <mxPoint x="22" y="772" />
              <mxPoint x="22" y="849" />
            </Array>
          </mxGeometry>
        </mxCell>
      </root>
    </mxGraphModel>
  </diagram>
</mxfile>
